<?xml version="1.0"?>
<svg xmlns="http://www.w3.org/2000/svg" viewBox="0 0 64 64" width="512" height="512"><g id="Analysis_Report" data-name="Analysis Report"><path d="M43,21H61v-.006a.993.993,0,0,0,.969-1.048A18.983,18.983,0,0,0,43,2a1,1,0,0,0-1,1V20A1,1,0,0,0,43,21Zm16.882-2H44V4.029A16.984,16.984,0,0,1,59.882,19Z"/><path d="M59,32H56.654A18.756,18.756,0,0,0,58,25c0-.351-.011-.712-.032-1.062a1,1,0,0,0-1-.938H40V7a1,1,0,0,0-1-1,18.9,18.9,0,0,0-3,.261V3a1,1,0,0,0-1-1H11a1,1,0,0,0-.707.293l-8,8A1,1,0,0,0,2,11V61a1,1,0,0,0,1,1H35a1,1,0,0,0,1-1V43.739A18.9,18.9,0,0,0,39,44c.331,0,.663-.01,1-.028V59a3,3,0,0,0,3,3H59a3,3,0,0,0,3-3V35A3,3,0,0,0,59,32ZM10,5.414V10H5.414ZM34,60H4V12h7a1,1,0,0,0,1-1V4H34V6.69a18.973,18.973,0,0,0,0,36.62Zm5-18A17,17,0,0,1,38,8.029V24a1,1,0,0,0,1,1H56a16.781,16.781,0,0,1-1.538,7H43a3,3,0,0,0-3,3v6.968C39.662,41.988,39.329,42,39,42ZM60,59a1,1,0,0,1-1,1H43a1,1,0,0,1-1-1V35a1,1,0,0,1,1-1H59a1,1,0,0,1,1,1Z"/><path d="M57,36H45a1,1,0,0,0-1,1v4a1,1,0,0,0,1,1H57a1,1,0,0,0,1-1V37A1,1,0,0,0,57,36Zm-1,4H46V38H56Z"/><path d="M49,44H45a1,1,0,0,0-1,1v4a1,1,0,0,0,1,1h4a1,1,0,0,0,1-1V45A1,1,0,0,0,49,44Zm-1,4H46V46h2Z"/><path d="M57,44H53a1,1,0,0,0-1,1v4a1,1,0,0,0,1,1h4a1,1,0,0,0,1-1V45A1,1,0,0,0,57,44Zm-1,4H54V46h2Z"/><path d="M57,52H53a1,1,0,0,0-1,1v4a1,1,0,0,0,1,1h4a1,1,0,0,0,1-1V53A1,1,0,0,0,57,52Zm-1,4H54V54h2Z"/><path d="M49,52H45a1,1,0,0,0-1,1v4a1,1,0,0,0,1,1h4a1,1,0,0,0,1-1V53A1,1,0,0,0,49,52Zm-1,4H46V54h2Z"/><path d="M19,40a9,9,0,1,0,9,9A9.01,9.01,0,0,0,19,40Zm0,16a7,7,0,1,1,7-7A7.009,7.009,0,0,1,19,56Z"/><path d="M19,46a1,1,0,0,1,1,1h2a3,3,0,0,0-2-2.816V43H18v1.184A2.993,2.993,0,0,0,19,50a1,1,0,1,1-1,1H16a3,3,0,0,0,2,2.816V55h2V53.816A2.993,2.993,0,0,0,19,48a1,1,0,0,1,0-2Z"/><rect x="8" y="16" width="10" height="2"/><rect x="8" y="22" width="10" height="2"/><rect x="8" y="28" width="10" height="2"/><rect x="8" y="34" width="10" height="2"/></g></svg>
