<svg xmlns="http://www.w3.org/2000/svg" xmlns:xlink="http://www.w3.org/1999/xlink" viewBox="0 0 750 500"><defs><style>.cls-1{isolation:isolate;}.cls-2,.cls-4{fill:#fff;}.cls-3{fill:#e5eaf6;}.cls-4{stroke:#1c27ce;stroke-miterlimit:10;stroke-width:1.61px;}.cls-5{fill:#9eb0d6;}.cls-6{fill:#b5c2e6;}.cls-7{fill:#bbc9e3;}.cls-8{fill:#9eb1cf;}.cls-9{fill:#d0d8e9;}.cls-10{fill:#b9c4db;}.cls-11{fill:#677b9d;}.cls-12{fill:#839bbc;}.cls-13{fill:#f2f4f9;}.cls-14{fill:#c4cee3;}.cls-15{fill:url(#linear-gradient);}.cls-16,.cls-19{fill:#2c3c5d;}.cls-16{opacity:0.22;}.cls-16,.cls-25,.cls-26,.cls-32,.cls-34,.cls-36,.cls-37{mix-blend-mode:multiply;}.cls-17{fill:url(#linear-gradient-2);}.cls-18{fill:url(#linear-gradient-3);}.cls-20{fill:url(#linear-gradient-4);}.cls-21{fill:#3e51b8;}.cls-22{fill:#ebaf9d;}.cls-23{fill:#e4846b;}.cls-24{fill:url(#linear-gradient-5);}.cls-25,.cls-27,.cls-37{fill:#a3bbeb;}.cls-25{opacity:0.6;}.cls-28{fill:#c2c7d1;}.cls-29{fill:url(#linear-gradient-6);}.cls-30{fill:url(#linear-gradient-7);}.cls-31{fill:#607db4;}.cls-32,.cls-35{fill:#88a4d5;}.cls-32{opacity:0.71;}.cls-33{fill:#d69a9f;}.cls-34,.cls-37{opacity:0.5;}.cls-36{fill:#c94154;}</style><linearGradient id="linear-gradient" x1="372.24" y1="396.53" x2="372.24" y2="299.65" gradientUnits="userSpaceOnUse"><stop offset="0" stop-color="#2d3d64"/><stop offset="1" stop-color="#384b78"/></linearGradient><linearGradient id="linear-gradient-2" x1="313.79" y1="404.05" x2="313.79" y2="378" xlink:href="#linear-gradient"/><linearGradient id="linear-gradient-3" x1="423.06" y1="404.05" x2="423.06" y2="378" xlink:href="#linear-gradient"/><linearGradient id="linear-gradient-4" x1="391.51" y1="394.26" x2="357.69" y2="340.58" gradientUnits="userSpaceOnUse"><stop offset="0" stop-color="#4456dc"/><stop offset="1" stop-color="#677df3"/></linearGradient><linearGradient id="linear-gradient-5" x1="366.08" y1="262.97" x2="364.99" y2="220.82" gradientUnits="userSpaceOnUse"><stop offset="0" stop-color="#3b2828"/><stop offset="1" stop-color="#553737"/></linearGradient><linearGradient id="linear-gradient-6" x1="500.58" y1="389.92" x2="521.51" y2="389.92" xlink:href="#linear-gradient"/><linearGradient id="linear-gradient-7" x1="530.47" y1="318.02" x2="503.9" y2="370.75" gradientUnits="userSpaceOnUse"><stop offset="0" stop-color="#e3e7f6"/><stop offset="1" stop-color="#fff"/></linearGradient></defs><title>draw</title><g class="cls-1"><g id="BACKGROUND"><rect class="cls-2" width="750" height="500"/></g><g id="OBJECTS"><path class="cls-3" d="M623.44,284a314.88,314.88,0,0,1-3.37,49.73c-.16,1.11-.34,2.22-.53,3.3-1.19,7.2-2.64,13.91-4.28,20.11-.29,1.06-.58,2.11-.87,3.14-6.31,22.06-15.28,37-24.85,42.48H187.73s-34.25-29.69-41.12-72.11c-.18-1.08-.34-2.15-.47-3.25-2.67-21.11,1.63-45.15,20.13-70.16,8.44-11.38,19.53-19.31,32.27-24.76,1-.42,2-.83,3-1.21,18.89-7.39,41.08-9.71,63.37-10.07,1.12,0,2.25,0,3.38,0,13.27-.1,26.5.45,39.05.95,1.19.07,2.36.11,3.54.16,20.26.86,38.52,1.48,51.77-.95h0c1.22-.22,2.38-.48,3.51-.77h0c14.67-3.59,21.9-11.92,16.7-29.82-10.08-34.74.24-60.19,22.71-74.25,1.14-.73,2.33-1.42,3.54-2.08,12.7-6.89,28.76-10.5,46.92-10.45,1.27,0,2.56,0,3.87.06a176.3,176.3,0,0,1,49.8,9.33,157.91,157.91,0,0,1,26.33,11.45c1,.54,2,1.11,3,1.69a153.28,153.28,0,0,1,40.47,34c.75.87,1.48,1.76,2.2,2.66C610.56,198.75,623.15,244.69,623.44,284Z"/><path class="cls-2" d="M615.26,357.18c-.29,1.06-.58,2.11-.87,3.14A131.72,131.72,0,0,1,595.81,352c-29.47-16-67-51.65-78.36-130.69-4.89-34.07,1.35-66.52,18.6-96.48,1,.54,2,1.11,3,1.69-15.13,26.28-23.64,57.69-18.37,94.33,11.17,77.63,47.79,112.59,76.55,128.24A126.65,126.65,0,0,0,615.26,357.18Z"/><path class="cls-2" d="M620.07,333.77c-.16,1.11-.34,2.22-.53,3.3-18.61-8.74-42.08-27.76-53-69.05-10.57-40-6.36-75.47,13-107.52.75.87,1.48,1.76,2.2,2.66-18.37,31.05-22.28,65.39-12,104C580.11,306.7,602.28,325.15,620.07,333.77Z"/><path class="cls-2" d="M444.38,171.49C445.94,224,440,257.84,425,281.42c-15.67,24.7-41.81,39.63-84.75,48.4a117.17,117.17,0,0,1-23.67,2.47c-24.17,0-46.94-7.88-66.89-23.27-23.21-17.92-41-44.91-51.16-76.5,1-.42,2-.83,3-1.21,10,31.06,27.39,57.6,50.15,75.16,25.57,19.76,56,26.74,87.93,20.21,79.87-16.34,104.54-54,101.55-155.1-.86-28.69,4.15-51.33,14.89-67.58,1.27,0,2.56,0,3.87.06C448.74,119.85,443.52,142.45,444.38,171.49Z"/><path class="cls-2" d="M344.72,280.05a62.71,62.71,0,0,1-10.24.84c-25.75,0-55.24-15.61-69.58-59.65,1.12,0,2.25,0,3.38,0,15.81,47.28,49.71,60,75.91,55.67,35.39-5.8,69.43-42.24,62.84-98.36-2.83-24.07-3-44.62-1.44-62,1.14-.73,2.33-1.42,3.54-2.08-1.76,17.7-1.82,38.79,1.11,63.7C417.05,236.25,381.56,274,344.72,280.05Z"/><path class="cls-2" d="M366.17,220.6A41,41,0,0,1,359,236.86c-4.94,6.48-11.88,10.31-20.62,11.39a25.16,25.16,0,0,1-3.1.19,22.54,22.54,0,0,1-14.81-5.55c-5.83-4.9-10.08-12.5-13.17-20.73,1.19.07,2.36.11,3.54.16,2.87,7.28,6.67,13.87,11.71,18.1A19.44,19.44,0,0,0,338,245.06c7.86-1,14.06-4.38,18.47-10.13a36.68,36.68,0,0,0,6.17-13.56h0C363.88,221.15,365,220.89,366.17,220.6Z"/><path class="cls-2" d="M241.13,402.8h-3.51c-14.45-33.07-35.27-55.12-62-65.57a101.58,101.58,0,0,0-29-6.54c-.18-1.08-.34-2.15-.47-3.25a105,105,0,0,1,30.69,6.8C204.71,345.15,226.31,368.18,241.13,402.8Z"/><polygon class="cls-4" points="463.01 462.49 463.01 462.49 463.01 462.49 463.01 462.49 463.01 462.49"/><path class="cls-5" d="M171.43,303.12l-10,10.26-4.16-6.11-1.38-2c-4.43,1.11-11-7.55-13.59-12.17s7.86-11.79,7.86-11.79c-1.71-5.12-8.57-8.34-8.76-9.76s1.51-2.91,7.74,0,11.68,13.29,11.68,13.29c1.11-3-3.82-11.16-2.92-12.08s5.73.21,9.45,8,1.52,17.12,1.52,17.12l.05.08Z"/><path class="cls-6" d="M149.84,280.37s7.39,8.46,6.59,11.78-4.52-.54-4.52-.54,3.43,4,2.32,5.27-5.24-2-5.24-2,4.94,6.14,0,5.24-11.12-10.21-6.36-11.14c0,0-.58-6.78,3.75-4.46C146.38,284.5,144.44,278.85,149.84,280.37Z"/><path class="cls-7" d="M239.68,402.86s8.33-24.31,3.95-48.29a.63.63,0,0,1,0-.16,1,1,0,0,0,0-.2c-.12-.62-.25-1.25-.38-1.88a101.17,101.17,0,0,1-11.5,8.41c-8,5-18.68,10-26.87,7.69-15-4.3-37-33.54-47.25-56.63a26.74,26.74,0,0,1,15.3-10s20.4,27.18,38.39,33.62A132.47,132.47,0,0,0,228.41,307c4.8-10.79,12-17.62,21.08-21.29a49.05,49.05,0,0,1,17.18-3.38l15.77-7.36a60.48,60.48,0,0,1,6.53.53c7.39,1,19.68,3.67,29.62,11.24,15.29,11.66,37.31,116.15,37.31,116.15Z"/><path class="cls-8" d="M243.6,354.41c-.13-.7-.28-1.39-.42-2.08a101.17,101.17,0,0,1-11.5,8.41l4.65-39.81C241.07,339.16,243.34,352.78,243.6,354.41Z"/><path class="cls-9" d="M289,275.47c-2.43,15.46-17.9,29.74-29.08,29.55-9-.16-10.3-13-10.4-19.34a49.05,49.05,0,0,1,17.18-3.38l15.77-7.36A60.48,60.48,0,0,1,289,275.47Z"/><path class="cls-8" d="M262.22,387.06s35.51-36.94,37-75.79L309.74,344l-4,34.09Z"/><path class="cls-5" d="M261.19,402.85H221.44a8.12,8.12,0,0,1,6.24-7.24c6.14-1.82,10.06-9.46,28.48-8.46Z"/><path class="cls-10" d="M301.86,366.32s-18.72,10.77-48.22,18.42c0,0-4.09,9.86,3.09,18.11h57.06Z"/><path class="cls-11" d="M232.13,253.41s-8.48-11.7-7.44-19.58,8.34-6,8.34-6-.34-19.15,17.38-14.25c0,0-.39-5.85,3.48-5.69s9.94,9,9.94,9,1.5-6.6,4.13-5,3.43,8.36,8.9,11.64,8.86,7.51,4.56,20.8-1.07,14.22-2.61,21c-1.45,6.48-2.62,10.42-6.64,10.78s-19.41-15.87-19.41-15.87Z"/><path class="cls-5" d="M282.44,274.94s-9.88,23.95-20.25,22.14c-5.15-.9-6.29-4-6.34-7.68,0-4.75,1.8-10.32-1-12.66l12.43-17.66,2.74-3.9A64.35,64.35,0,0,0,282.44,274.94Z"/><path class="cls-12" d="M255.85,289.4c0-4.75,1.8-10.32-1-12.66l12.43-17.66c1.07,1.24,1.82,3.45,2.13,6.91C271.05,284.23,261.41,288.47,255.85,289.4Z"/><path class="cls-5" d="M230.92,244.1s3.36,30.84,16,37.79c10.93,6,24.22-12.22,23.95-21.25,0,0,4.77-3.64,4-9.53s-7-3.94-7.77,5.56c0,0-5.07-.36-6-12.24-3.19,2.64-6.62,1.83-10.22-1.38,0,0-1.79,6.61-11-1.11C239.8,241.94,236.32,246.66,230.92,244.1Z"/><path class="cls-11" d="M527.79,363.6s16.25,27.11,21.87,40.26H492.38a236.31,236.31,0,0,0-9-31.07Z"/><path class="cls-12" d="M505.45,369.64c-3.14,10.39-7.92,19.26-15,26l1.94,8.23L423.06,403l7.71-47.45Z"/><path class="cls-12" d="M614.2,221.71s2.29-14.37,6.85-19.47,17-12.64,18.52-10-11,11.1-11,11.1,5.63-1.34,10.46,7-10.73,14.76-10.73,14.76l-3.09,7-12.34-7.79Z"/><path class="cls-5" d="M630.16,203.65s-7,7.08-5.94,9.1,4.85-1.16,4.85-1.16-3.13,4.77-.7,6,6.18-2.88,6.18-2.88-3.13,4.33-1.33,5.12,11.42-6,9.7-7.58-2.66-.29-2.66-.29,2-3.39,0-4.47a2.33,2.33,0,0,0-3.29.94s1.65-2.6.32-3.61-4.15.29-4.15.29S634.06,200.77,630.16,203.65Z"/><path class="cls-5" d="M623.7,203.48c-2.11-.6-6.4,3.79-6.4,3.79-1.69,2.18-2,6.5-2.11,8.5-.21,5.58-2.32,8.54-2.32,8.54l6.26,3.95C624,222,622.4,214,621.61,211.18,624,207.64,625,203.84,623.7,203.48Z"/><path class="cls-7" d="M627.76,233.57s-20.94,55.75-54.2,60.69a170.94,170.94,0,0,1-34,2c-9.37-.49-14-1.9-14.32-2,0,0,0,0,0,0s-9.13,17-3.22,41.44,8.05,29.51,8.05,29.51-44.85,33-81.32,3L415.85,317l-10.31-16s9.47-31.1,36.17-51.31h0a81.76,81.76,0,0,1,38-16,96.5,96.5,0,0,1,26-.24s7.25,2.05,19,6.36c6.35,2.32,14,5.3,22.56,9,24.43,10.47,31.15,13.59,31.15,13.59s26-25.67,32.73-41.24C611.12,221.09,624.54,222.45,627.76,233.57Z"/><path class="cls-8" d="M459.81,259c-.12,12.49-2.79,24.6-4,34l20.69-4.19,32.19,31.82s4.07,9.33-4.23,10.94c-6.5,1.26-36.9,5.49-36.9,5.49-7,9.53-10.17,24.12-13.67,38.27l-30.86-53.62Z"/><path class="cls-9" d="M505.65,262c-14.41-3.66-22-16.62-26-28.38a96.5,96.5,0,0,1,26-.24s7.25,2.05,19,6.36C526.07,250.06,525.57,267.07,505.65,262Z"/><path class="cls-8" d="M543.49,273.43a157.31,157.31,0,0,0-3.91,22.85c-9.37-.49-14-1.9-14.32-2,0,0,0,0,0,0S533.43,280.27,543.49,273.43Z"/><rect class="cls-13" x="465.19" y="269.71" width="40.22" height="59.18" rx="1.95" transform="translate(-37.96 72.81) rotate(-8.26)"/><path class="cls-5" d="M481.36,291.14l5.5-2.15s5.24-14.49,11.75-5.36c0,0,4.49-2.69,4.36-4.16s-.2-3.63-.2-3.63,9.1,2,7.07,14.67-9.83,11.1-17.47,11.23l-9.53,3.76Z"/><path class="cls-14" d="M484.91,308.85s-42.86,28.38-61.38,14.69a72.87,72.87,0,0,1-7.68-6.56l-10.31-16s9.47-31.1,36.17-51.31h0c8.85-4,18.1-2.53,18.57,5.67,1.14,19.53-15.57,31.54-17.63,40.4l38.42-7.78S487.33,294.55,484.91,308.85Z"/><path class="cls-11" d="M535.3,203.7s6.12-13.09,3.62-20.63-9.32-4.35-9.32-4.35-3.27-18.87-19.75-10.73c0,0-.72-5.82-4.49-4.94s-8.06,10.76-8.06,10.76-2.72-6.19-5-4.17-1.8,8.86-6.56,13.1-7.29,9-.57,21.29,3.73,13.77,6.52,20.18c2.65,6.08,4.53,9.74,8.55,9.34s16.08-19.24,16.08-19.24Z"/><path class="cls-5" d="M489.93,234.31s9.48,23.35,24.38,19.53c5.06-1.31,5.09-6.75,4.45-10.33-.84-4.68-3.71-9.8-1.39-12.62l-15.54-15-3.42-3.31A64.24,64.24,0,0,1,489.93,234.31Z"/><path class="cls-12" d="M518.76,243.51c-.84-4.68-3.71-9.8-1.39-12.62l-15.54-15c-.81,1.42-1.13,3.72-.78,7.18C502.86,241.29,513.13,243.64,518.76,243.51Z"/><path class="cls-5" d="M534.73,194.33s2.5,30.92-8.55,40.11c-9.61,8-26.09-7.45-27.53-16.36,0,0-5.36-2.68-5.69-8.62s6.16-5.19,8.68,4c0,0,4.91-1.31,3.6-13.14,3.62,2,6.83.54,9.77-3.28,0,0,3,6.15,10.6-3.17C525.61,193.87,529.91,197.85,534.73,194.33Z"/><path class="cls-15" d="M456.1,385.76h0a21,21,0,0,1-2,5.21c-7.78,14.21-41.46,11.88-41.46,11.88H335.77c-31.82,0-44.57-.79-47.62-10.72a16.25,16.25,0,0,1-.42-1.7c-2.15-11.54,8.59-49.11,28.44-74.87,10.16-13.17,20.66-20.11,30-23.74a60.33,60.33,0,0,1,22.36-3.91c9.76,0,17.64.72,24.32,2.29,17.94,4.2,27.32,14.34,41.4,32.33C451.48,344.52,460,370.33,456.1,385.76Z"/><path class="cls-16" d="M320.87,376.64c8.35-13.13,11-31.33,13.29-49.81l7.24,37.58h62.8l11.54-37.58c-.27,17.56,2.14,34.79,10.47,51.26C426.21,378.09,385.15,424.56,320.87,376.64Z"/><path class="cls-17" d="M339.94,402.86h-4.17c-31.82,0-44.57-.79-47.62-10.72-1.66-7.81.45-16,10-18.47C313,369.83,339,384.94,339,384.94Z"/><path class="cls-18" d="M456.1,385.76s0,0,0,0a21,21,0,0,1-2,5.21c-7.78,14.21-41.46,11.88-41.46,11.88H389.84l2.9-19.32s40.45-18.73,54.94-12.89C454.77,373.5,456.94,379.43,456.1,385.76Z"/><path class="cls-19" d="M392.87,290.21c-.68,9-4.41,25.49-22.61,25.49-19.18,0-23.24-16.22-24.07-23.87a60.33,60.33,0,0,1,22.36-3.91C378.31,287.92,386.19,288.64,392.87,290.21Z"/><path class="cls-2" d="M409.44,402.85H335.77a3.22,3.22,0,0,1-3.22-3.22h0a3.22,3.22,0,0,1,3.22-3.22h73.67a3.22,3.22,0,0,1,3.22,3.22h0A3.22,3.22,0,0,1,409.44,402.85Z"/><path class="cls-20" d="M418.36,347.47l-.28,1.67v0l-7.63,47.26H335.37l-7.56-49a4,4,0,0,1,3.92-4.57h82.72A4,4,0,0,1,418.36,347.47Z"/><path class="cls-21" d="M418.08,349.16l-7.63,47.26H335.77l25.31-2.64A68.08,68.08,0,0,0,418.08,349.16Z"/><path class="cls-22" d="M370,308.85h-.5a17.6,17.6,0,0,1-7.24-1.46,13.07,13.07,0,0,1-7.49-12.26c0-.53,0-1,0-1.56,0-4.3-.26-7.87-.26-7.87v-1.94l27-1.2a63,63,0,0,0,1.08,10.13.53.53,0,0,1,0,.12A13.41,13.41,0,0,1,370,308.85Z"/><path class="cls-23" d="M382.61,292.69c-11.27,13.23-22.85,5.5-27.87.88,0-4.3-.26-7.87-.26-7.87v-1.94l27-1.2A63,63,0,0,0,382.61,292.69Z"/><path class="cls-22" d="M346.2,270.62s8.39,23.64,22.38,23.64,19.8-25.46,19.8-25.46V246.66H345.13Z"/><path class="cls-22" d="M341.7,257.28s-4.12.75-3.42,5.48,5,10.47,8.49,7.45Z"/><path class="cls-22" d="M391.65,255.3s4.18.18,4.13,5-3.53,11.05-7.4,8.53Z"/><path class="cls-24" d="M391.65,255.3a111.17,111.17,0,0,1-3.27,13.5s-3.31-.67-4.39-9.39A11.86,11.86,0,0,1,372.33,254s-1.07,6.71-8,1.94c-4.61,3.77-10.06,4.16-16.24,1.61,0,0,1,8.8-1.91,13,0,0-1.07-3.48-4.5-13.34a3.31,3.31,0,0,0-2.41,1.39s-7.41-14.5-3.92-21.47,8.18-4.3,8.18-4.3-1.74-9.53,8.59-13,10.33-8.19,11.94-7.25,2.28,4.43,2.28,4.43,17.85-1.88,22.68,17.31c0,0,12.89.41,5.24,22C394.28,256.39,393.78,255.5,391.65,255.3Z"/><path class="cls-4" d="M408.63,282.56"/><path class="cls-25" d="M322.69,275.39H255.25a4,4,0,0,0-4,4v40.25a4,4,0,0,0,4,4h46.52l12.14,10.75a1.19,1.19,0,0,0,1.91-1.28l-3.28-9.47h10.15a4,4,0,0,0,4-4V279.37A4,4,0,0,0,322.69,275.39Z"/><g class="cls-26"><path class="cls-27" d="M276.17,286.16H260.64a1.05,1.05,0,0,1-1.06-1.06h0a1.06,1.06,0,0,1,1.06-1.06h15.53a1.06,1.06,0,0,1,1.06,1.06h0A1.05,1.05,0,0,1,276.17,286.16Z"/><path class="cls-27" d="M314.48,295.34h-45a1.05,1.05,0,0,1-1.06-1.06h0a1.05,1.05,0,0,1,1.06-1h45a1.05,1.05,0,0,1,1.06,1h0A1.05,1.05,0,0,1,314.48,295.34Z"/><path class="cls-27" d="M314.48,301.88H260.64a1.06,1.06,0,0,1-1.06-1.06h0a1.05,1.05,0,0,1,1.06-1.06h53.84a1.05,1.05,0,0,1,1.06,1.06h0A1.06,1.06,0,0,1,314.48,301.88Z"/><path class="cls-27" d="M314.48,308.41H260.64a1.06,1.06,0,0,1-1.06-1.06h0a1.05,1.05,0,0,1,1.06-1.06h53.84a1.05,1.05,0,0,1,1.06,1.06h0A1.06,1.06,0,0,1,314.48,308.41Z"/><path class="cls-27" d="M314.48,314.94H260.64a1.05,1.05,0,0,1-1.06-1.06h0a1.06,1.06,0,0,1,1.06-1.06h53.84a1.06,1.06,0,0,1,1.06,1.06h0A1.05,1.05,0,0,1,314.48,314.94Z"/></g><rect class="cls-28" x="130.42" y="402.85" width="493.01" height="10.47" rx="1.75"/><path class="cls-29" d="M500.58,377h20.93a0,0,0,0,1,0,0v18.12a7.65,7.65,0,0,1-7.65,7.65h-5.64a7.65,7.65,0,0,1-7.65-7.65V377A0,0,0,0,1,500.58,377Z"/><path class="cls-30" d="M507.22,377v-5.59a1.66,1.66,0,0,1,1.66-1.66H511a1.66,1.66,0,0,0,1.67-1.66V366a1.66,1.66,0,0,0-1.67-1.66H504.2a8.45,8.45,0,0,1-8.45-8.46h0a8.45,8.45,0,0,1,8.45-8.45h9a1.66,1.66,0,0,0,1.66-1.66V345a8.76,8.76,0,0,1,8.76-8.75h0a8.75,8.75,0,0,1,8.75,8.75h0a9.45,9.45,0,0,1-9.46,9.46H507.07a1.66,1.66,0,0,0-1.66,1.66h0a1.66,1.66,0,0,0,1.66,1.66h8.66a5.79,5.79,0,0,1,5.78,5.79v3.62a5.78,5.78,0,0,1-5.78,5.79h0a1.66,1.66,0,0,0-1.67,1.66V377Z"/><rect class="cls-25" x="433.38" y="270.31" width="62.6" height="77.09" rx="3.82"/><path class="cls-31" d="M495.64,344.85H440.69a4.64,4.64,0,0,1-4.63-4.63V270.78a4.64,4.64,0,0,1,4.63-4.63h54.95a4.64,4.64,0,0,1,4.63,4.63v69.44A4.64,4.64,0,0,1,495.64,344.85Zm-54.95-77.09a3,3,0,0,0-3,3v69.44a3,3,0,0,0,3,3h54.95a3,3,0,0,0,3-3V270.78a3,3,0,0,0-3-3Z"/><g class="cls-26"><path class="cls-32" d="M455,295H442.77V280.35H455Zm-10.6-1.61h9V282h-9Z"/><path class="cls-33" d="M451.91,290.44l-3.63-4.05,1.2-1.08,2.2,2.46a21.53,21.53,0,0,1,9-6.56l.62,1.49c-6.47,2.67-8.84,6.73-8.87,6.77Z"/><path class="cls-27" d="M486.13,285.83H467.18a1.19,1.19,0,0,1-1.19-1.2h0a1.19,1.19,0,0,1,1.19-1.2h18.95a1.19,1.19,0,0,1,1.19,1.2h0A1.19,1.19,0,0,1,486.13,285.83Z"/><path class="cls-27" d="M486.13,291.63H467.18a1.19,1.19,0,0,1-1.19-1.19h0a1.19,1.19,0,0,1,1.19-1.2h18.95a1.19,1.19,0,0,1,1.19,1.2h0A1.19,1.19,0,0,1,486.13,291.63Z"/></g><g class="cls-26"><path class="cls-32" d="M455,317.38H442.77V302.76H455Zm-10.6-1.61h9v-11.4h-9Z"/><path class="cls-33" d="M451.91,312.85l-3.63-4.05,1.2-1.08,2.2,2.46a21.53,21.53,0,0,1,9-6.56l.62,1.49c-6.47,2.67-8.84,6.73-8.87,6.77Z"/><path class="cls-27" d="M486.13,308.24H467.18A1.19,1.19,0,0,1,466,307h0a1.19,1.19,0,0,1,1.19-1.2h18.95a1.19,1.19,0,0,1,1.19,1.2h0A1.19,1.19,0,0,1,486.13,308.24Z"/><path class="cls-27" d="M486.13,314H467.18a1.19,1.19,0,0,1-1.19-1.19h0a1.19,1.19,0,0,1,1.19-1.2h18.95a1.19,1.19,0,0,1,1.19,1.2h0A1.19,1.19,0,0,1,486.13,314Z"/></g><g class="cls-26"><path class="cls-32" d="M455,339.79H442.77V325.17H455Zm-10.6-1.61h9v-11.4h-9Z"/><path class="cls-33" d="M451.91,335.26l-3.63-4.05,1.2-1.08,2.2,2.46a21.53,21.53,0,0,1,9-6.56l.62,1.49c-6.47,2.66-8.84,6.72-8.87,6.77Z"/><path class="cls-27" d="M486.13,330.64H467.18a1.19,1.19,0,0,1-1.19-1.19h0a1.19,1.19,0,0,1,1.19-1.2h18.95a1.19,1.19,0,0,1,1.19,1.2h0A1.19,1.19,0,0,1,486.13,330.64Z"/><path class="cls-27" d="M486.13,336.45H467.18a1.19,1.19,0,0,1-1.19-1.19h0a1.19,1.19,0,0,1,1.19-1.2h18.95a1.19,1.19,0,0,1,1.19,1.2h0A1.19,1.19,0,0,1,486.13,336.45Z"/></g><rect class="cls-25" x="626.42" y="164.11" width="62.6" height="77.09" rx="3.82"/><path class="cls-31" d="M690,237.62H635.07a4.64,4.64,0,0,1-4.63-4.63V163.55a4.63,4.63,0,0,1,4.63-4.63H690a4.63,4.63,0,0,1,4.63,4.63V233A4.64,4.64,0,0,1,690,237.62Zm-54.95-77.09a3,3,0,0,0-3,3V233a3,3,0,0,0,3,3H690a3,3,0,0,0,3-3V163.55a3,3,0,0,0-3-3Z"/><g class="cls-34"><circle class="cls-35" cx="643.56" cy="184.71" r="9.66" transform="translate(315.36 768.3) rotate(-76.66)"/><path class="cls-36" d="M646.11,183.44,652.55,172c5.9,1.48,8.72,7,5.9,12.75Z"/><path class="cls-27" d="M640.07,204.84a2.82,2.82,0,1,1-2.82-2.82A2.82,2.82,0,0,1,640.07,204.84Z"/><path class="cls-27" d="M640.07,217.32a2.82,2.82,0,1,1-2.82-2.82A2.82,2.82,0,0,1,640.07,217.32Z"/><path class="cls-27" d="M676.84,207.66H654.29a2.81,2.81,0,0,1-2.81-2.82h0a2.81,2.81,0,0,1,2.81-2.82h22.55a2.82,2.82,0,0,1,2.82,2.82h0A2.82,2.82,0,0,1,676.84,207.66Z"/><path class="cls-27" d="M676.84,220.14H654.29a2.81,2.81,0,0,1-2.81-2.82h0a2.81,2.81,0,0,1,2.81-2.82h22.55a2.82,2.82,0,0,1,2.82,2.82h0A2.82,2.82,0,0,1,676.84,220.14Z"/><path class="cls-27" d="M640.07,230a2.82,2.82,0,1,1-2.82-2.82A2.82,2.82,0,0,1,640.07,230Z"/><path class="cls-27" d="M676.84,232.82H654.29a2.81,2.81,0,0,1-2.81-2.82h0a2.81,2.81,0,0,1,2.81-2.82h22.55a2.82,2.82,0,0,1,2.82,2.82h0A2.82,2.82,0,0,1,676.84,232.82Z"/></g><rect class="cls-25" x="156.43" y="128.61" width="62.6" height="89.97" rx="3.82"/><path class="cls-31" d="M211.72,215.9H156.77a4.63,4.63,0,0,1-4.63-4.63V129a4.63,4.63,0,0,1,4.63-4.63h54.95a4.63,4.63,0,0,1,4.63,4.63v82.32A4.64,4.64,0,0,1,211.72,215.9Zm-54.95-90a3,3,0,0,0-3,3v82.32a3,3,0,0,0,3,3h54.95a3,3,0,0,0,3-3V129a3,3,0,0,0-3-3Z"/><path class="cls-35" d="M178.22,154.33h3.47a0,0,0,0,1,0,0v12.14a1.21,1.21,0,0,1-1.21,1.21h-1.05a1.21,1.21,0,0,1-1.21-1.21V154.33A0,0,0,0,1,178.22,154.33Z" transform="translate(-61.51 160.14) rotate(-41.61)"/><path class="cls-35" d="M171.42,140.49a9.26,9.26,0,1,0,9.26,9.26A9.26,9.26,0,0,0,171.42,140.49Zm0,15.57a6.31,6.31,0,1,1,6.31-6.31A6.32,6.32,0,0,1,171.42,156.06Z"/><path class="cls-27" d="M208.93,145.59H194.31a1.68,1.68,0,0,1-1.68-1.68h0a1.68,1.68,0,0,1,1.68-1.68h14.62a1.68,1.68,0,0,1,1.68,1.68h0A1.68,1.68,0,0,1,208.93,145.59Z"/><path class="cls-27" d="M208.93,154.31H194.31a1.68,1.68,0,0,1-1.68-1.68h0a1.68,1.68,0,0,1,1.68-1.68h14.62a1.68,1.68,0,0,1,1.68,1.68h0A1.68,1.68,0,0,1,208.93,154.31Z"/><path class="cls-27" d="M208.93,162.36H194.31a1.68,1.68,0,0,1-1.68-1.68h0a1.68,1.68,0,0,1,1.68-1.68h14.62a1.68,1.68,0,0,1,1.68,1.68h0A1.68,1.68,0,0,1,208.93,162.36Z"/><path class="cls-27" d="M190.72,184.77H168.17a1.92,1.92,0,0,1-1.91-1.91h0a1.92,1.92,0,0,1,1.91-1.92h22.55a1.92,1.92,0,0,1,1.91,1.92h0A1.92,1.92,0,0,1,190.72,184.77Z"/><path class="cls-27" d="M190.72,196.74H168.17a1.91,1.91,0,0,1-1.91-1.91h0a1.92,1.92,0,0,1,1.91-1.91h22.55a1.92,1.92,0,0,1,1.91,1.91h0A1.91,1.91,0,0,1,190.72,196.74Z"/><path class="cls-27" d="M190.72,208.72H168.17a1.92,1.92,0,0,1-1.91-1.91h0a1.91,1.91,0,0,1,1.91-1.91h22.55a1.91,1.91,0,0,1,1.91,1.91h0A1.92,1.92,0,0,1,190.72,208.72Z"/><path class="cls-27" d="M208.38,182.86a3.07,3.07,0,1,1-3.07-3.07A3.07,3.07,0,0,1,208.38,182.86Z"/><path class="cls-27" d="M208.38,194.83a3.07,3.07,0,1,1-3.07-3.07A3.06,3.06,0,0,1,208.38,194.83Z"/><path class="cls-27" d="M208.38,206.81a3.07,3.07,0,1,1-3.07-3.07A3.07,3.07,0,0,1,208.38,206.81Z"/><rect class="cls-25" x="376.42" y="139.73" width="113.93" height="80.11" rx="6.64"/><path class="cls-31" d="M487.19,217H386.55a7.46,7.46,0,0,1-7.45-7.45V142.68a7.45,7.45,0,0,1,7.45-7.44H487.19a7.46,7.46,0,0,1,7.45,7.44v66.83A7.46,7.46,0,0,1,487.19,217ZM386.55,136.85a5.84,5.84,0,0,0-5.84,5.83v66.83a5.85,5.85,0,0,0,5.84,5.84H487.19a5.85,5.85,0,0,0,5.84-5.84V142.68a5.84,5.84,0,0,0-5.84-5.83Z"/><path class="cls-37" d="M446.46,156H390.71a2.92,2.92,0,0,1-2.92-2.92h0a2.91,2.91,0,0,1,2.92-2.92h55.75a2.92,2.92,0,0,1,2.92,2.92h0A2.92,2.92,0,0,1,446.46,156Z"/><rect class="cls-32" x="387.79" y="166.3" width="61.59" height="32.61" rx="2.06"/><path class="cls-37" d="M476.05,156H459.54a2.91,2.91,0,0,1-2.91-2.92h0a2.91,2.91,0,0,1,2.91-2.92h16.51a2.92,2.92,0,0,1,2.92,2.92h0A2.92,2.92,0,0,1,476.05,156Z"/><path class="cls-37" d="M477.16,171.53H459.81a1.81,1.81,0,0,1-1.81-1.81h0a1.81,1.81,0,0,1,1.81-1.81h17.35a1.81,1.81,0,0,1,1.81,1.81h0A1.81,1.81,0,0,1,477.16,171.53Z"/><path class="cls-37" d="M477.16,179.72H459.81a1.81,1.81,0,0,1-1.81-1.81h0a1.81,1.81,0,0,1,1.81-1.81h17.35a1.81,1.81,0,0,1,1.81,1.81h0A1.81,1.81,0,0,1,477.16,179.72Z"/><path class="cls-37" d="M477.16,187.9H459.81a1.81,1.81,0,0,1-1.81-1.81h0a1.81,1.81,0,0,1,1.81-1.81h17.35a1.81,1.81,0,0,1,1.81,1.81h0A1.81,1.81,0,0,1,477.16,187.9Z"/><path class="cls-37" d="M477.16,196.09H459.81a1.81,1.81,0,0,1-1.81-1.81h0a1.81,1.81,0,0,1,1.81-1.81h17.35a1.81,1.81,0,0,1,1.81,1.81h0A1.81,1.81,0,0,1,477.16,196.09Z"/><path class="cls-37" d="M465.38,211.66H401.17a2.42,2.42,0,0,1-2.41-2.42h0a2.41,2.41,0,0,1,2.41-2.41h64.21a2.41,2.41,0,0,1,2.42,2.41h0A2.42,2.42,0,0,1,465.38,211.66Z"/><rect class="cls-25" x="60.06" y="233.39" width="106.01" height="68.44" rx="5.37"/><path class="cls-31" d="M156.8,298.67H61.52a6.18,6.18,0,0,1-6.17-6.17V234.8a6.17,6.17,0,0,1,6.17-6.17H156.8A6.17,6.17,0,0,1,163,234.8v57.7A6.18,6.18,0,0,1,156.8,298.67ZM61.52,230.24A4.56,4.56,0,0,0,57,234.8v57.7a4.57,4.57,0,0,0,4.56,4.56H156.8a4.57,4.57,0,0,0,4.56-4.56V234.8a4.56,4.56,0,0,0-4.56-4.56Z"/><g class="cls-34"><path class="cls-35" d="M98.21,265a13.65,13.65,0,1,1-5.28-22.59l-4.38,13Z"/><path class="cls-36" d="M104,254.28a11.49,11.49,0,0,1-3.41,8.19l-8.2-8.19,3.72-11A11.6,11.6,0,0,1,104,254.28Z"/><path class="cls-27" d="M150.17,269.8h-31.4V243.29a.81.81,0,1,1,1.61,0v24.9h29.79a.81.81,0,0,1,0,1.61Z"/><rect class="cls-27" x="125.34" y="256.14" width="4.03" height="12.05"/><rect class="cls-36" x="133.66" y="250.03" width="4.03" height="18.16"/><rect class="cls-27" x="141.85" y="259.11" width="4.03" height="9.08"/><rect class="cls-27" x="74.22" y="279.28" width="21.74" height="2.82" rx="1.41"/><rect class="cls-27" x="103.07" y="279.28" width="21.74" height="2.82" rx="1.41"/><rect class="cls-27" x="130.17" y="279.28" width="21.74" height="2.82" rx="1.41"/><path class="cls-27" d="M107,292.16H88a1.41,1.41,0,0,1-1.41-1.4h0A1.41,1.41,0,0,1,88,289.35H107a1.41,1.41,0,0,1,1.41,1.41h0A1.41,1.41,0,0,1,107,292.16Z"/><path class="cls-27" d="M134.07,292.16H115.15a1.41,1.41,0,0,1-1.41-1.4h0a1.41,1.41,0,0,1,1.41-1.41h18.92a1.41,1.41,0,0,1,1.41,1.41h0A1.41,1.41,0,0,1,134.07,292.16Z"/></g></g></g></svg>